# xmcd CD database file
#
# Track frame offsets:
#	150
#	20619
#	40241
#	63379
#	83437
#	110769
#	133664
#	153965
#	175562
#	180240
#	216995
#
# Disc length: 4440 seconds
#
# Revision: 0
# Processed by: cddbd v1.5.1PL0 Copyright (c) Steve Scherf et al.
# Submitted via: CDex 1.51
#
DISCID=8811560b
DTITLE=Craig Chaquico - Midnight Noon
DYEAR=2004
DGENRE=New Age
TTITLE0=Her Boyfriend's Wedding
TTITLE1=Dream Date
TTITLE2=El Gato
TTITLE3=Bobby Sox
TTITLE4=Always With You
TTITLE5=Jazz Noon
TTITLE6=Dia Del Zorro
TTITLE7=Girls' Night Out
TTITLE8=Equinox
TTITLE9=Outlaw In The City
TTITLE10=data track
EXTD=YEAR: 2004
EXTT0=
EXTT1=
EXTT2=
EXTT3=
EXTT4=
EXTT5=
EXTT6=
EXTT7=
EXTT8=
EXTT9=
EXTT10=
PLAYORDER=
